<svg id="Layer_1" data-name="Layer 1" xmlns="http://www.w3.org/2000/svg" viewBox="0 0 377 97"><defs><style>.cls-1{fill:#fff;}</style></defs><path class="cls-1" d="M263.5,43.1a7.36,7.36,0,0,1,3.39-4.19c.39-.21.44-1.26.46-1.93.08-3.19,1.65-5.38,4.48-6.08a7.77,7.77,0,0,1,1.74-.14q22.92,0,45.85,0c3.82,0,6.18,2.35,6.18,6.23a2.87,2.87,0,0,0,1.3,2.58c1.1.89,1.75,2.34,2.6,3.54v6.16c-1,2.76-2.79,4.48-5.81,4.7-.42,3-.93,5.9-1.2,8.81-.31,3.32-1.65,5.75-5,6.73H275.23c-3.24-1.17-4.47-3.65-4.74-6.93-.24-2.88-.79-5.74-1.2-8.63-3.1-.24-4.84-2-5.79-4.68ZM273.18,54c.45,3.21.85,6.34,1.33,9.45.28,1.83.85,2.24,2.79,2.24h19.78c6.25,0,12.5,0,18.76,0,1.17,0,2.26-.22,2.48-1.52.57-3.35,1-6.72,1.53-10.18Zm23.26-3.89H323c2,0,2.69-.67,2.7-2.74,0-.83,0-1.66,0-2.49,0-1.94-.7-2.6-2.68-2.61-5.62,0-11.24,0-16.85,0a2.6,2.6,0,0,0-1.87.8,7.21,7.21,0,0,1-7.5,3,2.24,2.24,0,0,0-.73,0,6.9,6.9,0,0,1-7.23-3,2.18,2.18,0,0,0-1.41-.85q-9-.09-18,0a1.91,1.91,0,0,0-2,2c0,1,0,2,0,2.94,0,2.24.61,2.84,2.88,2.84Zm-25.2-11.67h1.65c4.64,0,9.29.08,13.92,0,1.92-.05,3.46.35,4.6,1.93s2.79,2,4.78,2.07c2.53.1,4.44-.53,5.91-2.57a3.63,3.63,0,0,1,3.33-1.41c4.93.06,9.86,0,14.8,0h1.52c.2-3.38-.23-3.84-3.33-3.84h-44.7c-1.9,0-2.54.66-2.54,2.55C271.18,37.51,271.21,37.89,271.24,38.42Z"/><path class="cls-1" d="M13,47.86q1.77-5.38,3.36-10.35t2.84-9.18q1.23-4.21,1.95-7.46a30.82,30.82,0,0,0,.8-5.16,5.78,5.78,0,0,1,1.66-2.93,3.93,3.93,0,0,1,2.75-1.09,2.89,2.89,0,0,1,1.61.43,3.22,3.22,0,0,1,1.07,1.13,5.63,5.63,0,0,1,.6,1.58,8.23,8.23,0,0,1,.2,1.78,8.88,8.88,0,0,1-.08,1.21c-.05.37-.12.72-.19,1.06-.6,2.39-1.32,4.87-2.15,7.42s-1.69,5.13-2.56,7.75-1.74,5.24-2.6,7.87-1.63,5.21-2.3,7.74l-.71,2.65q-.54,2-.93,3.87a14.92,14.92,0,0,0-.39,3,1.83,1.83,0,0,0,.23,1,1,1,0,0,0,.9.37A16.1,16.1,0,0,0,22.84,60c1.43-.35,2.91-.78,4.45-1.29s3.07-1.07,4.59-1.68,2.92-1.19,4.2-1.74l1.74-.74,1.8-.76,2.87-1.19,5-2.07,1-.34a2.46,2.46,0,0,1,1.83.1,1.86,1.86,0,0,1,.7.63,2.81,2.81,0,0,1,.38.9,4.88,4.88,0,0,1,.11,1,7.35,7.35,0,0,1-.13,1.5A8.83,8.83,0,0,1,51,55.4a5.65,5.65,0,0,1-1.21,1.35,10.14,10.14,0,0,1-1.56,1,15.29,15.29,0,0,1-1.6.76c-.52.21-1,.37-1.29.47l-1.66.63c-.69.26-1.44.54-2.25.86l-2.5.95-2.42.92-2,.76-1.23.45L29.54,65c-1.37.52-2.73,1-4.08,1.48s-2.64.87-3.85,1.19a11.9,11.9,0,0,1-3,.49,9.32,9.32,0,0,1-2.32-.23,5.89,5.89,0,0,1-1.51-.65,10.22,10.22,0,0,1-1.34-1A16.07,16.07,0,0,0,11.59,65a3.48,3.48,0,0,1-1.45-1.72A6.48,6.48,0,0,1,9.71,61a13.77,13.77,0,0,1,.1-1.45c.07-.55.15-1.12.26-1.72s.22-1.18.35-1.76a12.92,12.92,0,0,1,.43-1.52Z"/><path class="cls-1" d="M63,33.25a3.48,3.48,0,0,1,.44-1.07,3.57,3.57,0,0,1,.63-.73,2.74,2.74,0,0,1,.6-.39A1.16,1.16,0,0,1,65.1,31a6.83,6.83,0,0,1,1,.09l1.13.18,1.21.23a1.65,1.65,0,0,1,1.47.82,3.74,3.74,0,0,1,.45,1.88,5.16,5.16,0,0,1-.24,1.6q-1.32,4.89-2.42,8.5T65.87,50.4c-.51,1.69-.9,3.07-1.18,4.14A10.91,10.91,0,0,0,64.28,57a9.25,9.25,0,0,0,.22,1.84,8.09,8.09,0,0,0,.64,1.89,4.58,4.58,0,0,0,1.1,1.47,2.32,2.32,0,0,0,1.6.58,6.45,6.45,0,0,0,3.32-1,18.47,18.47,0,0,0,3.2-2.48,24.64,24.64,0,0,0,2.76-3.13c.82-1.1,1.49-2.09,2-2.95l1-1.76a25.4,25.4,0,0,0,1.74-3.76c.54-1.42,1-2.85,1.41-4.28s.75-2.78,1-4,.51-2.27.67-3l1-5.2a3.73,3.73,0,0,1,1-2.05,3.26,3.26,0,0,1,2.17-.57,6.83,6.83,0,0,1,1.76.22,2.91,2.91,0,0,1,1.32.76A3.33,3.33,0,0,1,93,30.93a8.15,8.15,0,0,1,.28,2.36,20.24,20.24,0,0,1-.53,4.12c-.35,1.63-.74,3.26-1.15,4.9-.24,1-.48,2-.72,3.07s-.47,2.16-.67,3.24-.35,2.11-.47,3.09a23.69,23.69,0,0,0-.17,2.63c0,1.33,0,2.66.13,4s.14,2.73.14,4.22c0,.68,0,1.27-.06,1.79a6.77,6.77,0,0,1-.17,1.18,5.53,5.53,0,0,1-1.12,2.26,3,3,0,0,1-2.32.74,5.15,5.15,0,0,1-1.8-.25,2.54,2.54,0,0,1-1-.68,2.2,2.2,0,0,1-.49-1,7.67,7.67,0,0,1-.16-1.07l-.43-7.39-.35.12c-.86,1.09-1.8,2.32-2.81,3.67a31.07,31.07,0,0,1-3.36,3.79,19,19,0,0,1-4,3,9.63,9.63,0,0,1-4.7,1.19,4.47,4.47,0,0,1-1.31-.25A14.54,14.54,0,0,1,64.09,69a13.55,13.55,0,0,1-1.64-.88,8.67,8.67,0,0,1-1.25-.91,11.38,11.38,0,0,1-3.05-4.5,14.85,14.85,0,0,1-.9-5.07,17.73,17.73,0,0,1,.24-2.9c.15-1,.34-1.89.54-2.79s.44-1.74.69-2.54.45-1.5.6-2.13q.75-2.93,1.33-5.15c.39-1.49.74-2.79,1-3.91s.55-2.07.76-2.87Z"/><path class="cls-1" d="M128.27,36a7.69,7.69,0,0,0-2.93.64,19.91,19.91,0,0,0-3.24,1.74c-1.12.73-2.26,1.56-3.42,2.48s-2.3,1.88-3.42,2.87c-.57.5-1.12.94-1.64,1.35a6.7,6.7,0,0,1-1.56.92,16.33,16.33,0,0,0-1.15,2.36c-.41,1-.81,2-1.2,3.2s-.76,2.35-1.11,3.56-.64,2.33-.88,3.38c-.13.54-.23,1.08-.31,1.6s-.17,1.07-.27,1.66-.23,1.22-.38,1.89-.31,1.43-.52,2.27a2.66,2.66,0,0,1-.63,1.19,3,3,0,0,1-.9.68,2.84,2.84,0,0,1-.89.3c-.29,0-.51,0-.67,0a3.9,3.9,0,0,1-2.42-.7,3.24,3.24,0,0,1-.94-2.73c0-.37,0-.75,0-1.16a6.68,6.68,0,0,1,.24-1.34c.57-2.48,1.12-4.7,1.66-6.68s1.07-3.82,1.62-5.51,1.1-3.29,1.66-4.79,1.13-3,1.72-4.53,1.19-3.1,1.83-4.72,1.32-3.43,2-5.41a2.12,2.12,0,0,1,1.23-1.12A5.15,5.15,0,0,1,114,29a4.21,4.21,0,0,1,2.44.67,2.18,2.18,0,0,1,1,1.91,2.38,2.38,0,0,1-.08.43,4.45,4.45,0,0,1-.23.67l-1.72,4.06q1.64-1.29,3.42-2.58a34.48,34.48,0,0,1,3.65-2.32,23.55,23.55,0,0,1,3.77-1.68,11.49,11.49,0,0,1,3.73-.65,8.16,8.16,0,0,1,5.86,2c1.4,1.34,2.11,3.42,2.11,6.23a21.24,21.24,0,0,1-.84,5.51c-.56,2.06-1.27,4.27-2.11,6.62s-1.76,4.83-2.74,7.42-1.88,5.23-2.71,7.91a13.37,13.37,0,0,1-.72,1.84,3.84,3.84,0,0,1-.88,1.19,3.07,3.07,0,0,1-1.19.65A6.16,6.16,0,0,1,125,69a3.07,3.07,0,0,1-2.11-.56,2.46,2.46,0,0,1-.59-1.82,13.55,13.55,0,0,1,.33-2.68c.22-1,.54-2.21.94-3.47s.87-2.61,1.41-4,1.11-2.89,1.74-4.37c.49-1.2,1-2.4,1.46-3.6s.91-2.35,1.29-3.47.68-2.19.92-3.2a12.91,12.91,0,0,0,.35-2.82,4.26,4.26,0,0,0-.53-2.13A2.07,2.07,0,0,0,128.27,36Z"/><path class="cls-1" d="M144.83,52.74A38,38,0,0,1,147,46.45a41.25,41.25,0,0,1,3.53-6.34,36.55,36.55,0,0,1,4.71-5.67A24.59,24.59,0,0,1,161,30.2a9.24,9.24,0,0,1,2.23-.82,11.31,11.31,0,0,1,2.46-.27,12.07,12.07,0,0,1,2.4.23,5.36,5.36,0,0,1,1.92.79,4.07,4.07,0,0,1,1.27,1.4,4.39,4.39,0,0,1,.46,2.11,7,7,0,0,1-.27,1.9,5.53,5.53,0,0,1-.82,1.71,4.15,4.15,0,0,1-1.37,1.23,3.68,3.68,0,0,1-1.91.47,3.91,3.91,0,0,1-1.58-.31,12,12,0,0,1-1.39-.7c-.23-.16-.46-.29-.66-.41a4.42,4.42,0,0,0-.75-.33,12.65,12.65,0,0,0-2.95,1.85,20.71,20.71,0,0,0-2.57,2.56,24.38,24.38,0,0,0-2.19,3c-.66,1.07-1.26,2.13-1.8,3.2A30,30,0,0,0,152.16,51c-.38,1-.69,2-.92,2.83a17.84,17.84,0,0,0-.49,2.13,13.37,13.37,0,0,0-.22,2.32,7.75,7.75,0,0,0,.14,1.48,3.37,3.37,0,0,0,.49,1.25,2.36,2.36,0,0,0,.94.86,3,3,0,0,0,1.44.32,11,11,0,0,0,2.72-.35,20.39,20.39,0,0,0,2.63-.9,22.86,22.86,0,0,0,2.52-1.27c.82-.48,1.62-1,2.41-1.47.49-.31,1-.64,1.48-1s1-.64,1.41-.9a12.49,12.49,0,0,1,1.23-.65,2.44,2.44,0,0,1,1-.25,2.23,2.23,0,0,1,1.1.29,1.08,1.08,0,0,1,.5,1,3.16,3.16,0,0,1-.23,1.13,10.17,10.17,0,0,1-1.48,2.74,14.27,14.27,0,0,1-2.09,2.16,16.15,16.15,0,0,1-2.47,1.7c-.87.5-1.73,1-2.59,1.37a22.44,22.44,0,0,1-4.91,1.93,17.1,17.1,0,0,1-4.16.65,8.12,8.12,0,0,1-1.28-.12A5.23,5.23,0,0,1,150,67.9a9.82,9.82,0,0,1-4.61-3.67A10,10,0,0,1,144,58.76a19.37,19.37,0,0,1,.22-2.87A27.1,27.1,0,0,1,144.83,52.74Z"/><path class="cls-1" d="M205.65,70.24c-1.61,0-2.72-.35-3.32-1a4.33,4.33,0,0,1-.9-2.89,12.48,12.48,0,0,1,.2-2.11c.13-.76.3-1.54.51-2.35.36-1.38.77-2.75,1.23-4.12s.91-2.74,1.36-4.14.9-2.78,1.33-4.18.82-2.79,1.15-4.2a2.35,2.35,0,0,0,0-.5,1.27,1.27,0,0,0-.27-.86,1,1,0,0,0-.82-.32,5.55,5.55,0,0,0-1.86.36,7.8,7.8,0,0,0-1.66.78,48.06,48.06,0,0,0-4.59,3.47,38.35,38.35,0,0,0-3.61,3.6,44.79,44.79,0,0,0-3.11,4q-1.46,2.13-3.06,4.67a35.37,35.37,0,0,0-2,4.32A31,31,0,0,1,185,67.59a4.38,4.38,0,0,1-1.27,1.58,3.76,3.76,0,0,1-2.11.49,2.54,2.54,0,0,1-2.21-.9,3.94,3.94,0,0,1-.64-2.35,10.21,10.21,0,0,1,.35-2.53L192,12.23a5.19,5.19,0,0,1,.39-1,4,4,0,0,1,.74-1,4.09,4.09,0,0,1,1.11-.78,3.31,3.31,0,0,1,1.47-.31c.42,0,.86,0,1.33.06a6.54,6.54,0,0,1,1.27.23,2.15,2.15,0,0,1,.93.57,1.41,1.41,0,0,1,.38,1,5.87,5.87,0,0,1-.08.65c-.06.33-.13.7-.24,1.11q-2.1,8.48-4.51,17.66T190,49a57,57,0,0,1,5-5.37,38,38,0,0,1,5.29-4.2,25.49,25.49,0,0,1,5.63-2.75,18.6,18.6,0,0,1,6-1A3.88,3.88,0,0,1,215,36.9,4.77,4.77,0,0,1,216,40.13a6.83,6.83,0,0,1-.23,1.75c-.31,1.2-.67,2.38-1.06,3.54s-.79,2.32-1.21,3.49l-1.25,3.58c-.41,1.21-.78,2.45-1.09,3.73a33.42,33.42,0,0,0-.86,4.67c-.16,1.47-.26,2.65-.31,3.53a11.92,11.92,0,0,1-.36,2.19,6,6,0,0,1-.8,1.86,4.13,4.13,0,0,1-1.32,1.28A3.56,3.56,0,0,1,205.65,70.24Z"/><path class="cls-1" d="M224.87,55.2c.52-2.11,1.12-4.4,1.8-6.89s1.38-5,2.11-7.62,1.45-5.16,2.16-7.71,1.38-5,2-7.23,1.11-4.31,1.54-6.13.72-3.3.88-4.42l.43-3.16c.08-.23.16-.49.25-.78a2.76,2.76,0,0,1,.41-.8,2.58,2.58,0,0,1,.73-.65,2.1,2.1,0,0,1,1.11-.27,4.29,4.29,0,0,1,2,.43,3.57,3.57,0,0,1,1.31,1.15,4.73,4.73,0,0,1,.68,1.66,9.63,9.63,0,0,1,.2,2,14.4,14.4,0,0,1-.16,2.06c-.1.69-.22,1.3-.35,1.85Q240.69,24,239,29.44t-3,11a37,37,0,0,1,3.28-2.75A26.42,26.42,0,0,1,243,35.34a22.34,22.34,0,0,1,4-1.58,14.61,14.61,0,0,1,4.06-.59,9.9,9.9,0,0,1,3.71.63,7,7,0,0,1,2.58,1.7,6.57,6.57,0,0,1,1.5,2.56,10,10,0,0,1,.49,3.2,16.72,16.72,0,0,1-.09,1.7,15.46,15.46,0,0,1-.3,1.7,27.79,27.79,0,0,1-2.87,7.26,31,31,0,0,1-4.22,5.73,33.55,33.55,0,0,1-5.11,4.45,58.49,58.49,0,0,1-5.57,3.46,20.45,20.45,0,0,1-3.54,1.5,11.24,11.24,0,0,1-3.34.53,6.74,6.74,0,0,1-2.44-.34,4.36,4.36,0,0,1-1.5-1,6.8,6.8,0,0,1-.49.82,4.37,4.37,0,0,1-.7.8,3.39,3.39,0,0,1-2.25.84,3.93,3.93,0,0,1-3.16-1.11,4.48,4.48,0,0,1-.94-3,9.94,9.94,0,0,1,.39-2.7Zm24.84-15.89a10.25,10.25,0,0,0-4,.93,31.38,31.38,0,0,0-4.36,2.33,51.46,51.46,0,0,0-4.21,3q-2,1.58-3.6,2.83c-.31,1.07-.62,2.09-.94,3.08s-.61,2-.91,3-.58,2.06-.82,3.13-.47,2.2-.65,3.39L230,62.51l.23.7a8.59,8.59,0,0,1,1.51-.7c.45-.16.89-.29,1.32-.41l1.35-.37a14.9,14.9,0,0,0,1.56-.55,30.52,30.52,0,0,0,10.3-6.6,21.51,21.51,0,0,0,5.68-10.2c.13-.57.23-1.08.31-1.52a6.87,6.87,0,0,0,.12-1.21,2.33,2.33,0,0,0-.62-1.76A2.94,2.94,0,0,0,249.71,39.31Z"/><path class="cls-1" d="M335.86,66.45a3.75,3.75,0,0,1-2.38.71,2.46,2.46,0,0,1-1.19-.28,2.86,2.86,0,0,1-.9-.72,3.25,3.25,0,0,1-.57-1,3.57,3.57,0,0,1-.19-1.16,2.69,2.69,0,0,1,.33-1.38,3.54,3.54,0,0,1,.82-1,5.38,5.38,0,0,1,1.05-.68c.38-.19.73-.34,1-.47q1.56-1,3.52-2.5t4-3.19q2.07-1.7,4.12-3.45L349.42,48l1.75-1.57A35.91,35.91,0,0,0,350,43c-.39-1-.78-1.81-1.17-2.56S348,39,347.64,38.31l-1.31-2.13-1-1.56a2.12,2.12,0,0,1-.33-1.1,3,3,0,0,1,.2-1,3.84,3.84,0,0,1,.6-1.1,3.75,3.75,0,0,1,1.06-.9,3,3,0,0,1,1.5-.37,4.54,4.54,0,0,1,2.21.53,6.49,6.49,0,0,1,1.7,1.35,10.77,10.77,0,0,1,1.29,1.78c.36.63.69,1.24,1,1.81a9.88,9.88,0,0,1,.51,1.25c.18.52.36,1.08.53,1.66l.49,1.72.39,1.47c1.14-1.1,2.26-2.24,3.34-3.44s2.28-2.59,3.61-4.18c.42-.5.85-1,1.31-1.6A16.74,16.74,0,0,1,366.17,31a8.64,8.64,0,0,1,1.53-1.2,3.22,3.22,0,0,1,1.68-.46,2.68,2.68,0,0,1,2.17.78,3.07,3.07,0,0,1,.64,2,5.94,5.94,0,0,1-.49,2.44,4.47,4.47,0,0,1-1.27,1.74c-.75.6-1.58,1.32-2.48,2.17s-1.81,1.73-2.73,2.67-1.84,1.86-2.76,2.77-1.74,1.74-2.5,2.47a6.93,6.93,0,0,0-.8.85,1.78,1.78,0,0,0-.33,1.1,2.88,2.88,0,0,0,.22,1,12.43,12.43,0,0,0,.54,1.25c.22.44.45.89.67,1.34s.41.87.56,1.23a27.31,27.31,0,0,0,1.31,2.5q.84,1.45,1.68,3a29.9,29.9,0,0,1,1.47,3.22A9,9,0,0,1,365.9,65a5.47,5.47,0,0,1-.27,1.74,5.26,5.26,0,0,1-.71,1.4,3.47,3.47,0,0,1-.95,1,1.86,1.86,0,0,1-1,.35,4.72,4.72,0,0,1-1.62-.23,2.65,2.65,0,0,1-1-.71,4,4,0,0,1-.73-1.15c-.19-.45-.41-1-.64-1.58-.34-1-.78-2.07-1.33-3.32s-1.11-2.49-1.7-3.71-1.14-2.36-1.66-3.42-.92-1.86-1.21-2.4c-.73.57-1.48,1.16-2.25,1.78l-3,2.36-4.67,3.67C341.26,62.23,338.83,64.14,335.86,66.45Z"/><path class="cls-1" d="M187.27,89.29V78.55h7.36v1.82h-5.2v2.54h4.49v1.82h-4.49v4.56Z"/><path class="cls-1" d="M206.1,89.29h-2.36l-.94-2.44h-4.29l-.89,2.44h-2.3l4.19-10.74h2.29Zm-4-4.25-1.48-4-1.45,4Zm0-7.19a1.44,1.44,0,0,1-2.87,0,1.4,1.4,0,0,1,.42-1,1.44,1.44,0,0,1,2.45,1Zm-.78,0a.65.65,0,0,0-.66-.65.62.62,0,0,0-.46.19.64.64,0,0,0-.19.46.66.66,0,0,0,.19.46.62.62,0,0,0,.46.19.64.64,0,0,0,.47-.19A.66.66,0,0,0,201.29,77.85Z"/><path class="cls-1" d="M211.42,89.29V78.55h8v1.82h-5.8v2.38H219v1.81h-5.39v2.92h6v1.81Z"/><path class="cls-1" d="M221.44,89.29V78.55h2.11l4.4,7.17V78.55h2V89.29h-2.18l-4.32-7v7Z"/><path class="cls-1" d="M235.87,85.8l2.11-.21a2.57,2.57,0,0,0,.77,1.56,2.35,2.35,0,0,0,1.57.5,2.44,2.44,0,0,0,1.58-.44,1.32,1.32,0,0,0,.53-1,1,1,0,0,0-.22-.65,1.76,1.76,0,0,0-.78-.46c-.26-.09-.83-.25-1.74-.47a5.9,5.9,0,0,1-2.44-1.06,2.82,2.82,0,0,1-1-2.17,2.77,2.77,0,0,1,.46-1.53,2.91,2.91,0,0,1,1.34-1.09,5.4,5.4,0,0,1,2.12-.37,4.49,4.49,0,0,1,3,.89,3.1,3.1,0,0,1,1.07,2.36l-2.16.1a1.87,1.87,0,0,0-.6-1.19,2.16,2.16,0,0,0-1.38-.37,2.44,2.44,0,0,0-1.47.39.8.8,0,0,0-.35.67.84.84,0,0,0,.32.65,5.77,5.77,0,0,0,2,.72,10.55,10.55,0,0,1,2.34.77,3,3,0,0,1,1.18,1.09,3.39,3.39,0,0,1-.08,3.44,3.07,3.07,0,0,1-1.45,1.2,6.15,6.15,0,0,1-2.34.39,4.64,4.64,0,0,1-3.13-.94A4.12,4.12,0,0,1,235.87,85.8Z"/><path class="cls-1" d="M246.41,78.55h2.17v5.82a12.57,12.57,0,0,0,.08,1.79,1.73,1.73,0,0,0,.66,1.06,2.29,2.29,0,0,0,1.43.4,2.23,2.23,0,0,0,1.4-.38,1.48,1.48,0,0,0,.56-.92,12.91,12.91,0,0,0,.09-1.83V78.55H255v5.64a15.24,15.24,0,0,1-.17,2.73,3,3,0,0,1-.65,1.35,3.32,3.32,0,0,1-1.27.88,5.6,5.6,0,0,1-2.06.32,6.06,6.06,0,0,1-2.33-.35,3.4,3.4,0,0,1-1.26-.93,2.88,2.88,0,0,1-.61-1.19,13.11,13.11,0,0,1-.21-2.72Z"/><path class="cls-1" d="M257.28,89.29V78.55h2.11l4.39,7.17V78.55h2V89.29h-2.18l-4.33-7v7Z"/><path class="cls-1" d="M268.08,78.55h4a7.59,7.59,0,0,1,2,.21,3.5,3.5,0,0,1,1.62,1,4.56,4.56,0,0,1,1,1.74,7.72,7.72,0,0,1,.35,2.53,7.05,7.05,0,0,1-.33,2.29,4.68,4.68,0,0,1-1.15,1.9,3.76,3.76,0,0,1-1.52.85,6.61,6.61,0,0,1-1.92.23h-4.08Zm2.17,1.82v7.11h1.62a5.87,5.87,0,0,0,1.31-.1,2,2,0,0,0,.87-.45,2.13,2.13,0,0,0,.57-1,6.94,6.94,0,0,0,.22-2,6.27,6.27,0,0,0-.22-1.91,2.39,2.39,0,0,0-.61-1,2.11,2.11,0,0,0-1-.51,9.69,9.69,0,0,0-1.78-.1Z"/><path class="cls-1" d="M283.06,89.29V78.55h3.24l1.95,7.33,1.93-7.33h3.25V89.29h-2V80.84l-2.13,8.45H287.2l-2.13-8.45v8.45Z"/><path class="cls-1" d="M305.27,89.29h-2.36L302,86.85h-4.29l-.89,2.44h-2.3l4.19-10.74H301Zm-4-4.25-1.48-4-1.45,4Z"/><path class="cls-1" d="M306.41,78.55h4a7.59,7.59,0,0,1,2.05.21,3.55,3.55,0,0,1,1.62,1,4.69,4.69,0,0,1,1,1.74,8,8,0,0,1,.35,2.53,7.05,7.05,0,0,1-.33,2.29,4.8,4.8,0,0,1-1.15,1.9,3.76,3.76,0,0,1-1.52.85,6.61,6.61,0,0,1-1.92.23h-4.08Zm2.17,1.82v7.11h1.62a5.87,5.87,0,0,0,1.31-.1,2,2,0,0,0,.87-.45,2.21,2.21,0,0,0,.57-1,6.94,6.94,0,0,0,.22-2A6.27,6.27,0,0,0,313,82a2.5,2.5,0,0,0-.61-1,2.11,2.11,0,0,0-1-.51,9.69,9.69,0,0,0-1.78-.1Z"/><path class="cls-1" d="M317.25,89.29V78.55h3.48a13.25,13.25,0,0,1,2.58.16,2.85,2.85,0,0,1,1.54,1.05,3.32,3.32,0,0,1,.62,2.1,3.64,3.64,0,0,1-.35,1.66,3,3,0,0,1-.92,1.06,3.4,3.4,0,0,1-1.12.51,12.73,12.73,0,0,1-2.25.15h-1.41v4.05Zm2.17-8.92v3h1.18a5.7,5.7,0,0,0,1.72-.17,1.5,1.5,0,0,0,.68-.53,1.48,1.48,0,0,0,.24-.84,1.36,1.36,0,0,0-.34-1,1.51,1.51,0,0,0-.87-.48,10.5,10.5,0,0,0-1.57-.07Z"/><path class="cls-1" d="M335.82,89.29h-2.35l-.94-2.44h-4.29l-.89,2.44h-2.3l4.18-10.74h2.3Zm-4-4.25-1.48-4-1.45,4Z"/><path class="cls-1" d="M337,89.29V78.55h2.17v4.77l4.38-4.77h2.92l-4.05,4.18,4.27,6.56h-2.81l-2.95-5L339.17,86v3.25Z"/><path class="cls-1" d="M347.84,89.29V78.55H350v4.77l4.38-4.77h2.92l-4,4.18,4.26,6.56h-2.81l-2.95-5L350,86v3.25Z"/><path class="cls-1" d="M358.64,89.29V78.55h8v1.82h-5.79v2.38h5.39v1.81h-5.39v2.92h6v1.81Z"/></svg>